<svg width="31" height="31" viewBox="0 0 31 31" fill="none" xmlns="http://www.w3.org/2000/svg">
<path d="M27.1667 0.916687H3.83334C3.05979 0.916687 2.31792 1.22398 1.77094 1.77096C1.22396 2.31794 0.916672 3.05981 0.916672 3.83335V21.3334C0.916672 22.1069 1.22396 22.8488 1.77094 23.3957C2.31792 23.9427 3.05979 24.25 3.83334 24.25H9.06876L14.4646 29.6604C14.6002 29.7971 14.7615 29.9056 14.9392 29.9797C15.1169 30.0537 15.3075 30.0918 15.5 30.0918C15.6925 30.0918 15.8831 30.0537 16.0608 29.9797C16.2386 29.9056 16.3998 29.7971 16.5354 29.6604L21.9313 24.25H27.1667C27.9402 24.25 28.6821 23.9427 29.2291 23.3957C29.776 22.8488 30.0833 22.1069 30.0833 21.3334V3.83335C30.0833 3.05981 29.776 2.31794 29.2291 1.77096C28.6821 1.22398 27.9402 0.916687 27.1667 0.916687ZM21.3333 11.125H19.7729C19.5316 13.0856 18.8158 14.9577 17.6875 16.5792C18.0296 16.7615 18.3918 16.9034 18.7667 17.0021C19.1115 17.0885 19.4128 17.2979 19.6141 17.5908C19.8154 17.8838 19.9028 18.2402 19.8598 18.5931C19.8168 18.9459 19.6464 19.2709 19.3807 19.507C19.1149 19.743 18.7721 19.8739 18.4167 19.875H18.0667C17.157 19.6115 16.2919 19.2133 15.5 18.6938C14.7121 19.2198 13.8386 19.6047 12.9188 19.8313L12.5833 19.875C12.1966 19.9214 11.8072 19.8123 11.5009 19.5716C11.1946 19.331 10.9964 18.9785 10.95 18.5917C10.9036 18.2049 11.0127 17.8155 11.2534 17.5092C11.4941 17.2029 11.8466 17.0048 12.2333 16.9584C12.4868 16.8933 12.7353 16.8105 12.9771 16.7104C12.3462 16.1379 11.7922 15.486 11.3292 14.7709C11.1805 14.4419 11.1591 14.0694 11.2692 13.7256C11.3793 13.3818 11.613 13.091 11.9251 12.9095C12.2372 12.7281 12.6055 12.6688 12.9588 12.7433C13.3121 12.8177 13.6252 13.0205 13.8375 13.3125C14.241 13.9212 14.7325 14.4667 15.2958 14.9313C16.0911 13.7981 16.6105 12.4946 16.8125 11.125H9.66667C9.2799 11.125 8.90896 10.9714 8.63547 10.6979C8.36198 10.4244 8.20834 10.0535 8.20834 9.66669C8.20834 9.27991 8.36198 8.90898 8.63547 8.63549C8.90896 8.362 9.2799 8.20835 9.66667 8.20835H14.0417C14.0417 7.82158 14.1953 7.45065 14.4688 7.17716C14.7423 6.90367 15.1132 6.75002 15.5 6.75002C15.8868 6.75002 16.2577 6.90367 16.5312 7.17716C16.8047 7.45065 16.9583 7.82158 16.9583 8.20835H21.3333C21.7201 8.20835 22.091 8.362 22.3645 8.63549C22.638 8.90898 22.7917 9.27991 22.7917 9.66669C22.7917 10.0535 22.638 10.4244 22.3645 10.6979C22.091 10.9714 21.7201 11.125 21.3333 11.125Z" fill="#0460D9"/>
</svg>
