<svg width="48" height="48" viewBox="0 0 48 48" fill="none" xmlns="http://www.w3.org/2000/svg">
<circle cx="24" cy="24" r="24" fill="#051726"/>
<path d="M26.944 23.8C26.944 22.3067 26.816 21.0907 26.56 20.152C26.3147 19.2133 25.968 18.488 25.52 17.976C25.0827 17.464 24.5653 17.112 23.968 16.92C23.3707 16.728 22.7253 16.632 22.032 16.632H20.912V31.208H22.032C22.7573 31.208 23.4187 31.096 24.016 30.872C24.624 30.6373 25.1467 30.248 25.584 29.704C26.0213 29.1493 26.3573 28.392 26.592 27.432C26.8267 26.472 26.944 25.2613 26.944 23.8ZM32.384 23.8C32.384 25.6027 32.192 27.1493 31.808 28.44C31.424 29.72 30.8853 30.7867 30.192 31.64C29.5093 32.4933 28.7147 33.1653 27.808 33.656C26.9013 34.1467 25.9253 34.4933 24.88 34.696C23.8347 34.8987 22.7573 35 21.648 35H15.664V12.824H21.264C22.6827 12.824 24.0533 12.9733 25.376 13.272C26.7093 13.56 27.8987 14.0987 28.944 14.888C30 15.6667 30.8373 16.776 31.456 18.216C32.0747 19.6453 32.384 21.5067 32.384 23.8Z" fill="white"/>
</svg>
