<svg width="202" height="31" viewBox="0 0 202 31" fill="none" xmlns="http://www.w3.org/2000/svg">
<path d="M9.708 15.6C9.708 14.48 9.612 13.568 9.42 12.864C9.236 12.16 8.976 11.616 8.64 11.232C8.312 10.848 7.924 10.584 7.476 10.44C7.028 10.296 6.544 10.224 6.024 10.224H5.184V21.156H6.024C6.568 21.156 7.064 21.072 7.512 20.904C7.968 20.728 8.36 20.436 8.688 20.028C9.016 19.612 9.268 19.044 9.444 18.324C9.62 17.604 9.708 16.696 9.708 15.6ZM13.788 15.6C13.788 16.952 13.644 18.112 13.356 19.08C13.068 20.04 12.664 20.84 12.144 21.48C11.632 22.12 11.036 22.624 10.356 22.992C9.676 23.36 8.944 23.62 8.16 23.772C7.376 23.924 6.568 24 5.736 24H1.248V7.368H5.448C6.512 7.368 7.54 7.48 8.532 7.704C9.532 7.92 10.424 8.324 11.208 8.916C12 9.5 12.628 10.332 13.092 11.412C13.556 12.484 13.788 13.88 13.788 15.6ZM19.3586 18.732C19.4466 19.428 19.6266 19.992 19.8986 20.424C20.1786 20.848 20.5346 21.16 20.9666 21.36C21.3986 21.552 21.8826 21.648 22.4186 21.648C23.0026 21.648 23.5666 21.552 24.1106 21.36C24.6546 21.168 25.1786 20.912 25.6826 20.592L27.2066 22.656C26.6066 23.168 25.8786 23.588 25.0226 23.916C24.1746 24.244 23.2066 24.408 22.1186 24.408C20.6626 24.408 19.4426 24.12 18.4586 23.544C17.4746 22.96 16.7346 22.16 16.2386 21.144C15.7426 20.128 15.4946 18.96 15.4946 17.64C15.4946 16.384 15.7346 15.244 16.2146 14.22C16.6946 13.188 17.3946 12.368 18.3146 11.76C19.2426 11.144 20.3746 10.836 21.7106 10.836C22.9266 10.836 23.9786 11.096 24.8666 11.616C25.7626 12.136 26.4546 12.884 26.9426 13.86C27.4386 14.836 27.6866 16.008 27.6866 17.376C27.6866 17.592 27.6786 17.824 27.6626 18.072C27.6546 18.32 27.6386 18.54 27.6146 18.732H19.3586ZM21.7106 13.38C21.0306 13.38 20.4826 13.624 20.0666 14.112C19.6506 14.6 19.3986 15.38 19.3106 16.452H23.9906C23.9826 15.524 23.8026 14.78 23.4506 14.22C23.0986 13.66 22.5186 13.38 21.7106 13.38ZM38.2493 11.256V21.408H41.4893V24H30.8453V21.408H34.4573V13.848H30.9653V11.256H38.2493ZM35.9573 4.584C36.6133 4.584 37.1493 4.788 37.5653 5.196C37.9813 5.604 38.1893 6.112 38.1893 6.72C38.1893 7.328 37.9813 7.84 37.5653 8.256C37.1493 8.664 36.6133 8.868 35.9573 8.868C35.2933 8.868 34.7493 8.664 34.3253 8.256C33.9093 7.84 33.7013 7.328 33.7013 6.72C33.7013 6.112 33.9093 5.604 34.3253 5.196C34.7493 4.788 35.2933 4.584 35.9573 4.584ZM56.8759 11.256L52.6279 24H48.1639L43.8679 11.256H47.9599L50.4439 21.096L53.0359 11.256H56.8759ZM67.0305 11.256V21.408H70.2705V24H59.6265V21.408H63.2385V13.848H59.7465V11.256H67.0305ZM64.7385 4.584C65.3945 4.584 65.9305 4.788 66.3465 5.196C66.7625 5.604 66.9705 6.112 66.9705 6.72C66.9705 7.328 66.7625 7.84 66.3465 8.256C65.9305 8.664 65.3945 8.868 64.7385 8.868C64.0745 8.868 63.5305 8.664 63.1065 8.256C62.6905 7.84 62.4825 7.328 62.4825 6.72C62.4825 6.112 62.6905 5.604 63.1065 5.196C63.5305 4.788 64.0745 4.584 64.7385 4.584ZM78.7451 21.696C79.3771 21.696 79.8851 21.596 80.2691 21.396C80.6611 21.196 80.8571 20.896 80.8571 20.496C80.8571 20.224 80.7811 19.996 80.6291 19.812C80.4771 19.628 80.1851 19.452 79.7531 19.284C79.3211 19.116 78.6811 18.916 77.8331 18.684C77.0571 18.476 76.3691 18.212 75.7691 17.892C75.1771 17.572 74.7131 17.16 74.3771 16.656C74.0491 16.152 73.8851 15.524 73.8851 14.772C73.8851 14.012 74.0971 13.336 74.5211 12.744C74.9451 12.152 75.5691 11.688 76.3931 11.352C77.2171 11.008 78.2251 10.836 79.4171 10.836C80.5531 10.836 81.5411 10.984 82.3811 11.28C83.2291 11.568 83.9611 11.936 84.5771 12.384L83.0651 14.616C82.5371 14.288 81.9691 14.028 81.3611 13.836C80.7531 13.636 80.1411 13.536 79.5251 13.536C78.9091 13.536 78.4491 13.62 78.1451 13.788C77.8491 13.948 77.7011 14.192 77.7011 14.52C77.7011 14.736 77.7771 14.924 77.9291 15.084C78.0891 15.236 78.3851 15.396 78.8171 15.564C79.2491 15.724 79.8811 15.924 80.7131 16.164C81.5371 16.396 82.2531 16.664 82.8611 16.968C83.4771 17.272 83.9531 17.68 84.2891 18.192C84.6251 18.696 84.7931 19.364 84.7931 20.196C84.7931 21.124 84.5171 21.904 83.9651 22.536C83.4131 23.16 82.6811 23.628 81.7691 23.94C80.8571 24.252 79.8571 24.408 78.7691 24.408C77.5371 24.408 76.4491 24.232 75.5051 23.88C74.5611 23.528 73.7571 23.064 73.0931 22.488L75.0011 20.352C75.4971 20.736 76.0571 21.056 76.6811 21.312C77.3131 21.568 78.0011 21.696 78.7451 21.696ZM93.5438 10.836C94.8558 10.836 95.9718 11.116 96.8918 11.676C97.8118 12.236 98.5158 13.024 99.0038 14.04C99.4918 15.048 99.7358 16.232 99.7358 17.592C99.7358 19.008 99.4878 20.228 98.9918 21.252C98.5038 22.268 97.7998 23.048 96.8798 23.592C95.9598 24.136 94.8478 24.408 93.5438 24.408C92.2478 24.408 91.1358 24.14 90.2078 23.604C89.2878 23.068 88.5798 22.292 88.0838 21.276C87.5958 20.26 87.3518 19.04 87.3518 17.616C87.3518 16.264 87.5958 15.08 88.0838 14.064C88.5798 13.048 89.2878 12.256 90.2078 11.688C91.1358 11.12 92.2478 10.836 93.5438 10.836ZM93.5438 13.632C92.7678 13.632 92.1918 13.952 91.8158 14.592C91.4478 15.224 91.2638 16.232 91.2638 17.616C91.2638 19.024 91.4478 20.044 91.8158 20.676C92.1918 21.308 92.7678 21.624 93.5438 21.624C94.3198 21.624 94.8918 21.308 95.2598 20.676C95.6358 20.044 95.8238 19.016 95.8238 17.592C95.8238 16.216 95.6358 15.212 95.2598 14.58C94.8918 13.948 94.3198 13.632 93.5438 13.632ZM102.414 24V11.256H105.726L105.99 12.732C106.558 12.092 107.158 11.616 107.79 11.304C108.422 10.992 109.142 10.836 109.95 10.836C111.038 10.836 111.894 11.168 112.518 11.832C113.142 12.496 113.454 13.432 113.454 14.64V24H109.662V15.732C109.662 15.212 109.626 14.8 109.554 14.496C109.482 14.184 109.354 13.964 109.17 13.836C108.994 13.7 108.75 13.632 108.438 13.632C108.174 13.632 107.914 13.692 107.658 13.812C107.41 13.924 107.166 14.088 106.926 14.304C106.686 14.52 106.446 14.78 106.206 15.084V24H102.414Z" fill="white"/>
<path d="M126.201 9.3L127.857 11.916L120.069 16.464L127.857 20.928L126.141 23.628L116.793 17.82V15.132L126.201 9.3ZM139.224 15.6C139.224 14.48 139.128 13.568 138.936 12.864C138.752 12.16 138.492 11.616 138.156 11.232C137.828 10.848 137.44 10.584 136.992 10.44C136.544 10.296 136.06 10.224 135.54 10.224H134.7V21.156H135.54C136.084 21.156 136.58 21.072 137.028 20.904C137.484 20.728 137.876 20.436 138.204 20.028C138.532 19.612 138.784 19.044 138.96 18.324C139.136 17.604 139.224 16.696 139.224 15.6ZM143.304 15.6C143.304 16.952 143.16 18.112 142.872 19.08C142.584 20.04 142.18 20.84 141.66 21.48C141.148 22.12 140.552 22.624 139.872 22.992C139.192 23.36 138.46 23.62 137.676 23.772C136.892 23.924 136.084 24 135.252 24H130.764V7.368H134.964C136.028 7.368 137.056 7.48 138.048 7.704C139.048 7.92 139.94 8.324 140.724 8.916C141.516 9.5 142.144 10.332 142.608 11.412C143.072 12.484 143.304 13.88 143.304 15.6ZM148.874 18.732C148.962 19.428 149.142 19.992 149.414 20.424C149.694 20.848 150.05 21.16 150.482 21.36C150.914 21.552 151.398 21.648 151.934 21.648C152.518 21.648 153.082 21.552 153.626 21.36C154.17 21.168 154.694 20.912 155.198 20.592L156.722 22.656C156.122 23.168 155.394 23.588 154.538 23.916C153.69 24.244 152.722 24.408 151.634 24.408C150.178 24.408 148.958 24.12 147.974 23.544C146.99 22.96 146.25 22.16 145.754 21.144C145.258 20.128 145.01 18.96 145.01 17.64C145.01 16.384 145.25 15.244 145.73 14.22C146.21 13.188 146.91 12.368 147.83 11.76C148.758 11.144 149.89 10.836 151.226 10.836C152.442 10.836 153.494 11.096 154.382 11.616C155.278 12.136 155.97 12.884 156.458 13.86C156.954 14.836 157.202 16.008 157.202 17.376C157.202 17.592 157.194 17.824 157.178 18.072C157.17 18.32 157.154 18.54 157.13 18.732H148.874ZM151.226 13.38C150.546 13.38 149.998 13.624 149.582 14.112C149.166 14.6 148.914 15.38 148.826 16.452H153.506C153.498 15.524 153.318 14.78 152.966 14.22C152.614 13.66 152.034 13.38 151.226 13.38ZM172.001 11.256L167.753 24H163.289L158.993 11.256H163.085L165.569 21.096L168.161 11.256H172.001ZM186.85 7.092L199.81 15.108V17.82L190.462 23.628L188.746 21.048L196.546 16.464L185.17 9.816L186.85 7.092ZM178.726 26.688L175.762 25.332L185.854 4.392L188.794 5.748L178.726 26.688Z" fill="#0460D9"/>
</svg>
